<svg width="224" height="224" viewBox="0 0 224 224" fill="none" xmlns="http://www.w3.org/2000/svg">
<path d="M0 0H224V224H0V0Z" fill="white"/>
<path d="M196.432 75.376V77.936C193.701 78.0213 191.653 78.3627 190.288 78.96C188.923 79.472 187.984 80.496 187.472 82.032C187.045 83.4827 186.832 85.7867 186.832 88.944V152.432C186.832 155.504 187.045 157.808 187.472 159.344C187.984 160.88 188.923 161.904 190.288 162.416C191.653 162.928 193.701 163.269 196.432 163.44V166C194.043 165.829 191.013 165.744 187.344 165.744C183.76 165.659 180.091 165.616 176.336 165.616C172.24 165.616 168.4 165.659 164.816 165.744C161.232 165.744 158.331 165.829 156.112 166V163.44C159.013 163.269 161.189 162.928 162.64 162.416C164.176 161.904 165.2 160.88 165.712 159.344C166.224 157.808 166.48 155.504 166.48 152.432V83.184H167.376L135.632 166.128H133.584L99.024 83.696V145.008C99.024 149.701 99.28 153.328 99.792 155.888C100.304 158.363 101.413 160.155 103.12 161.264C104.912 162.288 107.685 163.013 111.44 163.44V166C109.819 165.829 107.685 165.744 105.04 165.744C102.395 165.659 99.92 165.616 97.616 165.616C95.6533 165.616 93.648 165.659 91.6 165.744C89.552 165.744 87.8453 165.829 86.48 166V163.44C89.2107 163.013 91.2587 162.288 92.624 161.264C93.9893 160.24 94.8853 158.576 95.312 156.272C95.824 153.883 96.08 150.64 96.08 146.544V88.944C96.08 85.7867 95.824 83.4827 95.312 82.032C94.8853 80.496 93.9467 79.472 92.496 78.96C91.1307 78.3627 89.1253 78.0213 86.48 77.936V75.376C87.8453 75.4613 89.552 75.5467 91.6 75.632C93.648 75.7173 95.6533 75.76 97.616 75.76C101.285 75.76 104.869 75.7173 108.368 75.632C111.952 75.5467 115.109 75.4613 117.84 75.376L144.72 140.272L141.52 143.216L167.248 75.76C168.699 75.76 170.192 75.76 171.728 75.76C173.264 75.76 174.8 75.76 176.336 75.76C180.091 75.76 183.76 75.7173 187.344 75.632C191.013 75.5467 194.043 75.4613 196.432 75.376Z" fill="#9F8D6D"/>
<path d="M109.784 75.376V77.936C107.907 78.6187 105.901 80.112 103.768 82.416C101.72 84.72 99.8 88.304 98.008 93.168L71 166.256C70.3173 166.171 69.592 166.128 68.824 166.128C68.056 166.128 67.288 166.128 66.52 166.128C65.8373 166.128 65.112 166.128 64.344 166.128C63.576 166.128 62.8507 166.171 62.168 166.256L29.528 86.128C28.3333 83.056 27.0107 80.9653 25.56 79.856C24.1093 78.6613 22.744 78.0213 21.464 77.936V75.376C24.024 75.4613 27.0107 75.5467 30.424 75.632C33.9227 75.7173 37.4213 75.76 40.92 75.76C44.8453 75.76 48.5147 75.7173 51.928 75.632C55.4267 75.5467 58.2427 75.4613 60.376 75.376V77.936C57.6453 78.0213 55.512 78.3627 53.976 78.96C52.44 79.472 51.5867 80.496 51.416 82.032C51.2453 83.4827 51.7573 85.7013 52.952 88.688L76.248 147.952L73.56 151.152L91.224 103.536C93.528 97.136 94.7227 92.1013 94.808 88.432C94.8933 84.7627 93.9973 82.1173 92.12 80.496C90.2427 78.8747 87.5547 78.0213 84.056 77.936V75.376C86.9573 75.4613 89.688 75.5467 92.248 75.632C94.808 75.7173 97.4107 75.76 100.056 75.76C101.933 75.76 103.683 75.7173 105.304 75.632C107.011 75.5467 108.504 75.4613 109.784 75.376Z" fill="#2B241E"/>
</svg>
